<?xml version="1.0" encoding="utf-8"?>
<svg version="1.1" xmlns:xlink="http://www.w3.org/1999/xlink" width="14px" height="14px" viewBox="15 158  14 14" xmlns="http://www.w3.org/2000/svg">
  <path d="M 22 158  C 25.92 158  29 161.08  29 165  C 29 168.92  25.92 172  22 172  C 18.08 172  15 168.92  15 165  C 15 161.08  18.08 158  22 158  Z " fill-rule="nonzero" fill="#f0f0f0" stroke="none" />
  <path d="M 22 158.5  C 25.64 158.5  28.5 161.36  28.5 165  C 28.5 168.64  25.64 171.5  22 171.5  C 18.36 171.5  15.5 168.64  15.5 165  C 15.5 161.36  18.36 158.5  22 158.5  Z " stroke-width="1" stroke="#1e98d7" fill="none" />
  <path d="M 22 168.5  C 20.04 168.5  18.5 166.96  18.5 165  C 18.5 163.04  20.04 161.5  22 161.5  C 23.96 161.5  25.5 163.04  25.5 165  C 25.5 166.96  23.96 168.5  22 168.5  " fill-rule="nonzero" fill="#1e98d7" stroke="none" />
</svg>