<?xml version="1.0" encoding="utf-8"?>
<svg version="1.1" xmlns:xlink="http://www.w3.org/1999/xlink" width="14px" height="14px" viewBox="15 268  14 14" xmlns="http://www.w3.org/2000/svg">
  <path d="M 22 268  C 25.92 268  29 271.08  29 275  C 29 278.92  25.92 282  22 282  C 18.08 282  15 278.92  15 275  C 15 271.08  18.08 268  22 268  Z " fill-rule="nonzero" fill="#f0f0f0" stroke="none" />
  <path d="M 22 268.5  C 25.64 268.5  28.5 271.36  28.5 275  C 28.5 278.64  25.64 281.5  22 281.5  C 18.36 281.5  15.5 278.64  15.5 275  C 15.5 271.36  18.36 268.5  22 268.5  Z " stroke-width="1" stroke="#1e98d7" fill="none" />
  <path d="M 22 278.5  C 20.04 278.5  18.5 276.96  18.5 275  C 18.5 273.04  20.04 271.5  22 271.5  C 23.96 271.5  25.5 273.04  25.5 275  C 25.5 276.96  23.96 278.5  22 278.5  " fill-rule="nonzero" fill="#1e98d7" stroke="none" />
</svg>