<?xml version="1.0" encoding="utf-8"?>
<svg version="1.1" xmlns:xlink="http://www.w3.org/1999/xlink" width="8px" height="8px" xmlns="http://www.w3.org/2000/svg">
  <g transform="matrix(1 0 0 1 -177 -211 )">
    <path d="M 181 211  C 183.24 211  185 212.76  185 215  C 185 217.24  183.24 219  181 219  C 178.76 219  177 217.24  177 215  C 177 212.76  178.76 211  181 211  Z " fill-rule="nonzero" fill="#ffffff" stroke="none" />
    <path d="M 181 211.5  C 182.96 211.5  184.5 213.04  184.5 215  C 184.5 216.96  182.96 218.5  181 218.5  C 179.04 218.5  177.5 216.96  177.5 215  C 177.5 213.04  179.04 211.5  181 211.5  Z " stroke-width="1" stroke="#c0c0c0" fill="none" />
  </g>
</svg>