<?xml version="1.0" encoding="utf-8"?>
<svg version="1.1" xmlns:xlink="http://www.w3.org/1999/xlink" width="8px" height="8px" xmlns="http://www.w3.org/2000/svg">
  <g transform="matrix(1 0 0 1 -161 -199 )">
    <path d="M 165 199  C 167.24 199  169 200.76  169 203  C 169 205.24  167.24 207  165 207  C 162.76 207  161 205.24  161 203  C 161 200.76  162.76 199  165 199  Z " fill-rule="nonzero" fill="#c0c0c0" stroke="none" fill-opacity="0" />
    <path d="M 165 199.5  C 166.96 199.5  168.5 201.04  168.5 203  C 168.5 204.96  166.96 206.5  165 206.5  C 163.04 206.5  161.5 204.96  161.5 203  C 161.5 201.04  163.04 199.5  165 199.5  Z " stroke-width="1" stroke="#c0c0c0" fill="none" />
  </g>
</svg>