<?xml version="1.0" encoding="utf-8"?>
<svg version="1.1" xmlns:xlink="http://www.w3.org/1999/xlink" width="8px" height="8px" xmlns="http://www.w3.org/2000/svg">
  <g transform="matrix(1 0 0 1 -161 -211 )">
    <path d="M 165 211  C 167.24 211  169 212.76  169 215  C 169 217.24  167.24 219  165 219  C 162.76 219  161 217.24  161 215  C 161 212.76  162.76 211  165 211  Z " fill-rule="nonzero" fill="#c0c0c0" stroke="none" fill-opacity="0" />
    <path d="M 165 211.5  C 166.96 211.5  168.5 213.04  168.5 215  C 168.5 216.96  166.96 218.5  165 218.5  C 163.04 218.5  161.5 216.96  161.5 215  C 161.5 213.04  163.04 211.5  165 211.5  Z " stroke-width="1" stroke="#c0c0c0" fill="none" />
  </g>
</svg>