<?xml version="1.0" encoding="utf-8"?>
<svg version="1.1" xmlns:xlink="http://www.w3.org/1999/xlink" width="80px" height="40px" xmlns="http://www.w3.org/2000/svg">
  <g transform="matrix(1 0 0 1 -19 -104 )">
    <path d="M 19.5 109  A 4.5 4.5 0 0 1 24 104.5 L 94 104.5  A 4.5 4.5 0 0 1 98.5 109 L 98.5 139  A 4.5 4.5 0 0 1 94 143.5 L 24 143.5  A 4.5 4.5 0 0 1 19.5 139 L 19.5 109  Z " fill-rule="nonzero" fill="#ffffff" stroke="none" />
    <path d="M 19.5 109  A 4.5 4.5 0 0 1 24 104.5 L 94 104.5  A 4.5 4.5 0 0 1 98.5 109 L 98.5 139  A 4.5 4.5 0 0 1 94 143.5 L 24 143.5  A 4.5 4.5 0 0 1 19.5 139 L 19.5 109  Z " stroke-width="1" stroke="#797979" fill="none" />
  </g>
</svg>